<?xml version="1.0" encoding="utf-8"?>
<!-- Generator: Adobe Illustrator 27.5.0, SVG Export Plug-In . SVG Version: 6.00 Build 0)  -->
<svg version="1.1" xmlns="http://www.w3.org/2000/svg" xmlns:xlink="http://www.w3.org/1999/xlink" x="0px" y="0px"
	 viewBox="0 0 750 500" style="enable-background:new 0 0 750 500;" xml:space="preserve">
<g id="BACKGROUND">
	<linearGradient id="SVGID_1_" gradientUnits="userSpaceOnUse" x1="0.0283" y1="249.7809" x2="750" y2="249.7809">
		<stop  offset="0" style="stop-color:#FFFFFF"/>
		<stop  offset="0.3813" style="stop-color:#F3F3F3"/>
		<stop  offset="0.8296" style="stop-color:#E9E9E9"/>
	</linearGradient>
	<polygon style="fill:url(#SVGID_1_);stroke:#F0F0F0;stroke-width:1.3893;stroke-miterlimit:10;" points="0.028,499.531 750,500 
		750,0.465 0.028,-0.438 	"/>
</g>
<g id="OBJECTS">
	<g>
		<defs>
			<rect id="SVGID_00000000914676228878863450000008850992118735127425_" width="750" height="500"/>
		</defs>
		<clipPath id="SVGID_00000011025540608463370840000013615767939056042665_">
			<use xlink:href="#SVGID_00000000914676228878863450000008850992118735127425_"  style="overflow:visible;"/>
		</clipPath>
		<path style="clip-path:url(#SVGID_00000011025540608463370840000013615767939056042665_);fill:#FFFFFF;" d="M0-0.366v113.523
			C100.145,257.04,326.524,484.355,750,466.132V0.465L0-0.366z"/>
		
			<linearGradient id="SVGID_00000118395813054005728740000016475247222213604749_" gradientUnits="userSpaceOnUse" x1="-0.1709" y1="285.4388" x2="750.011" y2="285.4388">
			<stop  offset="0.5518" style="stop-color:#E9E8E8"/>
			<stop  offset="1" style="stop-color:#8C8E90"/>
		</linearGradient>
		
			<path style="opacity:0.5;clip-path:url(#SVGID_00000011025540608463370840000013615767939056042665_);fill:none;stroke:url(#SVGID_00000118395813054005728740000016475247222213604749_);stroke-width:0.4532;stroke-miterlimit:10;" d="
			M0.028,103.794c0,0,210.849,388.25,749.972,361.887"/>
		
			<radialGradient id="SVGID_00000170999140969933777620000015165235661969607590_" cx="3972.1472" cy="31.8211" r="37.6601" gradientTransform="matrix(-0.7913 0.7952 -2.7589 -3.7549 3442.1526 -2747.0916)" gradientUnits="userSpaceOnUse">
			<stop  offset="0.2167" style="stop-color:#000000"/>
			<stop  offset="0.3976" style="stop-color:#464646"/>
			<stop  offset="0.6158" style="stop-color:#959595"/>
			<stop  offset="0.7961" style="stop-color:#CECECE"/>
			<stop  offset="0.929" style="stop-color:#F2F2F2"/>
			<stop  offset="1" style="stop-color:#FFFFFF"/>
		</radialGradient>
		
			<path style="opacity:0.2;clip-path:url(#SVGID_00000011025540608463370840000013615767939056042665_);fill:url(#SVGID_00000170999140969933777620000015165235661969607590_);" d="
			M170.017,333.468c-66.398-90.364-101.785-182.151-79.039-205.011c22.747-22.86,95.013,31.863,161.411,122.227
			c66.398,90.364,101.785,182.151,79.039,205.011C308.681,478.556,236.415,423.833,170.017,333.468z"/>
		<polygon style="clip-path:url(#SVGID_00000011025540608463370840000013615767939056042665_);fill:#FFFFFF;" points="416.497,500 
			0.94,499.513 0.027,-2.986 		"/>
		
			<radialGradient id="SVGID_00000127731471790042967340000009857593077474010015_" cx="252.915" cy="299.3246" r="0" gradientTransform="matrix(0.8564 0 0 1.1945 54.2057 -58.2246)" gradientUnits="userSpaceOnUse">
			<stop  offset="0.2167" style="stop-color:#000000"/>
			<stop  offset="0.3976" style="stop-color:#464646"/>
			<stop  offset="0.6158" style="stop-color:#959595"/>
			<stop  offset="0.7961" style="stop-color:#CECECE"/>
			<stop  offset="0.929" style="stop-color:#F2F2F2"/>
			<stop  offset="1" style="stop-color:#FFFFFF"/>
		</radialGradient>
		
			<path style="clip-path:url(#SVGID_00000011025540608463370840000013615767939056042665_);fill:url(#SVGID_00000127731471790042967340000009857593077474010015_);" d="
			M270.802,299.325"/>
		
			<radialGradient id="SVGID_00000039844864592171918690000017271565764980676749_" cx="4072.9741" cy="47.1355" r="28.9419" gradientTransform="matrix(-0.9761 1.0859 -3.6531 -4.4902 4295.1406 -3856.9749)" gradientUnits="userSpaceOnUse">
			<stop  offset="0.2167" style="stop-color:#000000"/>
			<stop  offset="0.3976" style="stop-color:#464646"/>
			<stop  offset="0.6158" style="stop-color:#959595"/>
			<stop  offset="0.7961" style="stop-color:#CECECE"/>
			<stop  offset="0.929" style="stop-color:#F2F2F2"/>
			<stop  offset="1" style="stop-color:#FFFFFF"/>
		</radialGradient>
		
			<path style="opacity:0.2;clip-path:url(#SVGID_00000011025540608463370840000013615767939056042665_);fill:url(#SVGID_00000039844864592171918690000017271565764980676749_);" d="
			M108.279,397.661C40.714,314.614,3.421,227.842,24.983,203.85c21.562-23.992,93.814,23.882,161.379,106.929
			c67.565,83.047,104.858,169.819,83.296,193.811C248.096,528.582,175.844,480.708,108.279,397.661z"/>
		<path style="clip-path:url(#SVGID_00000011025540608463370840000013615767939056042665_);fill:#FFFFFF;" d="M1.024,141.903
			l294.922,358.025L0.028,500V142.88C0.028,142.341,0.474,141.903,1.024,141.903L1.024,141.903z"/>
		<path style="clip-path:url(#SVGID_00000011025540608463370840000013615767939056042665_);fill:#FFFFFF;" d="M0.581,306.401
			l163.342,193.526L0.028,500V306.93C0.028,306.638,0.276,306.401,0.581,306.401L0.581,306.401z"/>
		
			<radialGradient id="SVGID_00000019669691079988720400000001609397725055636366_" cx="4202.0332" cy="61.4531" r="24.7216" gradientTransform="matrix(-1.791 1.9615 -4.5991 -5.7405 7883.1812 -7462.3276)" gradientUnits="userSpaceOnUse">
			<stop  offset="0.2167" style="stop-color:#000000"/>
			<stop  offset="0.3976" style="stop-color:#464646"/>
			<stop  offset="0.6158" style="stop-color:#959595"/>
			<stop  offset="0.7961" style="stop-color:#CECECE"/>
			<stop  offset="0.929" style="stop-color:#F2F2F2"/>
			<stop  offset="1" style="stop-color:#FFFFFF"/>
		</radialGradient>
		
			<path style="opacity:0.25;clip-path:url(#SVGID_00000011025540608463370840000013615767939056042665_);fill:url(#SVGID_00000019669691079988720400000001609397725055636366_);" d="
			M13.518,494.215c-72.66-90.69-104.166-194.217-70.373-231.235c33.794-37.017,120.092,6.493,192.752,97.184
			c72.66,90.69,104.167,194.218,70.373,231.235C172.476,628.415,86.178,584.905,13.518,494.215z"/>
		<path style="clip-path:url(#SVGID_00000011025540608463370840000013615767939056042665_);fill:#FFFFFF;" d="M0.192,397.26V275.59
			L190.919,500H87.2C87.2,500.232,0.192,397.26,0.192,397.26z"/>
		
			<linearGradient id="SVGID_00000043427748106790682540000011506051270832255620_" gradientUnits="userSpaceOnUse" x1="274.5008" y1="143.6752" x2="861.773" y2="143.6752" gradientTransform="matrix(1.0359 0.2712 -0.2533 0.9674 -85.3674 -153.3939)">
			<stop  offset="0" style="stop-color:#FFFFFF"/>
			<stop  offset="1" style="stop-color:#929292"/>
		</linearGradient>
		
			<path style="opacity:0.15;clip-path:url(#SVGID_00000011025540608463370840000013615767939056042665_);fill:url(#SVGID_00000043427748106790682540000011506051270832255620_);" d="
			M180.792-9.455c0,0,25.208,537.455,571.557,299.807l-5.02-290.586L180.792-9.455z"/>
		
			<radialGradient id="SVGID_00000119077940212979131930000017490929035361321374_" cx="3615.8125" cy="-152.6171" r="54.7589" gradientTransform="matrix(-0.7035 1.7095 -3.2248 -1.2883 2644.7117 -6195.4858)" gradientUnits="userSpaceOnUse">
			<stop  offset="0.2167" style="stop-color:#000000"/>
			<stop  offset="0.3976" style="stop-color:#464646"/>
			<stop  offset="0.6158" style="stop-color:#959595"/>
			<stop  offset="0.7961" style="stop-color:#CECECE"/>
			<stop  offset="0.929" style="stop-color:#F2F2F2"/>
			<stop  offset="1" style="stop-color:#FFFFFF"/>
		</radialGradient>
		
			<path style="opacity:0.2;clip-path:url(#SVGID_00000011025540608463370840000013615767939056042665_);fill:url(#SVGID_00000119077940212979131930000017490929035361321374_);" d="
			M539.919,311.74c-112.852-45.08-180.503-139.549-151.103-211.003c29.401-71.454,144.72-92.835,257.572-47.756
			c112.852,45.08,180.503,139.549,151.102,211.003C768.09,335.439,652.772,356.82,539.919,311.74z"/>
		
			<path style="clip-path:url(#SVGID_00000011025540608463370840000013615767939056042665_);fill:#FFFFFF;stroke:#CDCDCD;stroke-width:0.2523;stroke-miterlimit:10;" d="
			M750-0.438H448.831C416.39,181.257,576,294.333,750,250V-0.438z"/>
		
			<radialGradient id="SVGID_00000038391539337583428790000016538842867469040562_" cx="209.3308" cy="249.993" r="229.456" gradientUnits="userSpaceOnUse">
			<stop  offset="0" style="stop-color:#FFFFFF"/>
			<stop  offset="0.7315" style="stop-color:#C3C3C3"/>
		</radialGradient>
		
			<line style="clip-path:url(#SVGID_00000011025540608463370840000013615767939056042665_);fill:#FFFFFF;stroke:url(#SVGID_00000038391539337583428790000016538842867469040562_);stroke-width:0.2316;stroke-miterlimit:10;" x1="416.034" y1="499.993" x2="2.627" y2="-0.007"/>
		
			<radialGradient id="SVGID_00000149374623963866046610000004303119443182999699_" cx="145.9783" cy="317.579" r="167.1339" gradientUnits="userSpaceOnUse">
			<stop  offset="0" style="stop-color:#FFFFFF"/>
			<stop  offset="0.7315" style="stop-color:#C3C3C3"/>
		</radialGradient>
		
			<line style="clip-path:url(#SVGID_00000011025540608463370840000013615767939056042665_);fill:#FFFFFF;stroke:url(#SVGID_00000149374623963866046610000004303119443182999699_);stroke-width:0.2316;stroke-miterlimit:10;" x1="296.098" y1="500.001" x2="-4.142" y2="135.157"/>
		
			<radialGradient id="SVGID_00000040545479276347644730000018359613954023619714_" cx="90.1191" cy="381.4587" r="109.9893" gradientUnits="userSpaceOnUse">
			<stop  offset="0" style="stop-color:#FFFFFF"/>
			<stop  offset="0.7315" style="stop-color:#C3C3C3"/>
		</radialGradient>
		
			<line style="clip-path:url(#SVGID_00000011025540608463370840000013615767939056042665_);fill:#FFFFFF;stroke:url(#SVGID_00000040545479276347644730000018359613954023619714_);stroke-width:0.2316;stroke-miterlimit:10;" x1="190.656" y1="500" x2="-10.418" y2="262.917"/>
		
			<linearGradient id="SVGID_00000153688626198908398890000009038061334083536522_" gradientUnits="userSpaceOnUse" x1="516.986" y1="95.984" x2="750" y2="95.984">
			<stop  offset="0" style="stop-color:#FFFFFF"/>
			<stop  offset="1" style="stop-color:#7D7D7D"/>
		</linearGradient>
		
			<path style="opacity:0.15;clip-path:url(#SVGID_00000011025540608463370840000013615767939056042665_);fill:url(#SVGID_00000153688626198908398890000009038061334083536522_);" d="
			M750-0.438H520.56C495.368,132.292,606.667,219,750,185V-0.438z"/>
		
			<linearGradient id="SVGID_00000149358975358926033680000003448011316211738547_" gradientUnits="userSpaceOnUse" x1="585.6251" y1="64.0271" x2="750" y2="64.0271">
			<stop  offset="0" style="stop-color:#FFFFFF"/>
			<stop  offset="1" style="stop-color:#7D7D7D"/>
		</linearGradient>
		
			<path style="opacity:0.15;clip-path:url(#SVGID_00000011025540608463370840000013615767939056042665_);fill:url(#SVGID_00000149358975358926033680000003448011316211738547_);" d="
			M750-0.939H588.696C570.199,94.977,636.667,149.667,750,121.667V-0.939z"/>
	</g>
</g>
</svg>
